HIERARCHY
ROOT Hips
{
	OFFSET 0.000000 88.474243 0.000000
	CHANNELS 6 Xposition Yposition Zposition Zrotation Yrotation Xrotation 
	JOINT Hips_Spine
	{
		OFFSET 0.000000 0.000000 0.000000
		CHANNELS 3 Zrotation Yrotation Xrotation
		JOINT Spine
		{
			OFFSET 0.005100 8.711998 -0.691000
			CHANNELS 3 Zrotation Yrotation Xrotation
			JOINT Spine1
			{
				OFFSET -0.009200 8.660301 -1.275000
				CHANNELS 3 Zrotation Yrotation Xrotation
				JOINT Spine2
				{
					OFFSET 0.006300 9.852501 -1.857000
					CHANNELS 3 Zrotation Yrotation Xrotation
					JOINT Spine2_Neck
					{
						OFFSET 0.000000 0.000000 0.000000
						CHANNELS 3 Zrotation Yrotation Xrotation
						JOINT Neck
						{
							OFFSET 0.016300 11.420799 -0.263300
							CHANNELS 3 Zrotation Yrotation Xrotation
							End Site #name: Head
							{
								OFFSET -0.019200 9.262405 2.362500
							}
						}
					}
					JOINT Spine2_LeftShoulder
					{
						OFFSET 0.000000 0.000000 0.000000
						CHANNELS 3 Zrotation Yrotation Xrotation
						JOINT LeftShoulder
						{
							OFFSET 5.616900 6.732201 -0.345700
							CHANNELS 3 Zrotation Yrotation Xrotation
							JOINT LeftArm
							{
								OFFSET 10.664888 -0.183372 -2.440700
								CHANNELS 3 Zrotation Yrotation Xrotation
								JOINT LeftForeArm
								{
									OFFSET 27.459126 0.000000 0.000000
									CHANNELS 3 Zrotation Yrotation Xrotation
									End Site #name: LeftHand
									{
										OFFSET 21.306858 0.000000 0.000000
									}
								}
							}
						}
					}
					JOINT Spine2_RightShoulder
					{
						OFFSET 0.000000 0.000000 0.000000
						CHANNELS 3 Zrotation Yrotation Xrotation
						JOINT RightShoulder
						{
							OFFSET -5.580300 6.737503 -0.344400
							CHANNELS 3 Zrotation Yrotation Xrotation
							JOINT RightArm
							{
								OFFSET -10.679335 -0.188484 -2.383900
								CHANNELS 3 Zrotation Yrotation Xrotation
								JOINT RightForeArm
								{
									OFFSET -27.503529 0.000000 0.000000
									CHANNELS 3 Zrotation Yrotation Xrotation
									End Site #name: RightHand
									{
										OFFSET -21.306808 0.000000 0.000000
									}
								}
							}
						}
					}
				}
			}
		}
	}
	JOINT Hips_LeftUpLeg
	{
		OFFSET 0.000000 0.000000 0.000000
		CHANNELS 3 Zrotation Yrotation Xrotation
		JOINT LeftUpLeg
		{
			OFFSET 6.857700 -6.739601 0.312100
			CHANNELS 3 Zrotation Yrotation Xrotation
			JOINT LeftLeg
			{
				OFFSET -0.367590 -34.731552 -4.572400
				CHANNELS 3 Zrotation Yrotation Xrotation
				End Site #name: LeftFoot
				{
					OFFSET 0.367590 -34.656704 -6.067400
				}
			}
		}
	}
	JOINT Hips_RightUpLeg
	{
		OFFSET 0.000000 0.000000 0.000000
		CHANNELS 3 Zrotation Yrotation Xrotation
		JOINT RightUpLeg
		{
			OFFSET -6.876100 -6.733299 0.301000
			CHANNELS 3 Zrotation Yrotation Xrotation
			JOINT RightLeg
			{
				OFFSET 0.347353 -34.795158 -4.515900
				CHANNELS 3 Zrotation Yrotation Xrotation
				End Site #name: RightFoot
				{
					OFFSET -0.347353 -34.589367 -6.070300
				}
			}
		}
	}
}
MOTION
Frames: 7
Frame Time: 0.041667
-2.043540 -1.798997 -1.893399 -9.458478 20.358671 -2.043487 0.000000 -0.000000 0.000000 5.105847 -5.062317 -0.396531 4.438996 -0.483567 5.021863 0.000000 0.000000 0.000000 3.926944 -0.921294 5.545395 -2.699313 -12.457001 -1.793485 2.469648 -0.148223 3.955287 -4.871809 -3.939646 -2.376175 -85.989369 -7.193122 -25.592864 -1.786261 17.039719 0.021659 3.887805 -1.297788 4.746942 16.737695 -5.159574 5.997172 60.868966 1.577215 -14.776396 -177.795425 62.873680 -174.360692 0.000000 0.000000 -0.000000 5.259157 15.718720 -14.617114 -1.930661 -20.084404 -0.111111 0.000000 0.000000 -0.000000 4.244410 -4.300737 -4.595160 6.093661 1.183335 5.922672 
-2.140315 -1.843786 -1.953579 -9.424094 20.312979 -2.078907 0.000000 -0.000000 0.000000 5.136818 -5.063035 -0.426267 4.447564 -0.487978 5.018567 0.000000 0.000000 0.000000 3.939184 -0.927807 5.531083 -2.637827 -12.547347 -1.778313 2.477213 -0.152324 3.934058 -4.865828 -3.975333 -2.374556 -85.968063 -7.339215 -25.599230 -1.787372 16.988031 0.016291 3.907762 -1.299985 4.740099 16.773959 -5.202873 6.070643 60.948011 1.294938 -14.222778 -177.659441 63.625166 -174.226230 0.000000 0.000000 -0.000000 5.280688 15.763780 -14.572784 -1.932910 -20.063566 -0.046714 0.000000 0.000000 -0.000000 4.287687 -4.418884 -4.583665 6.055888 1.147855 5.999981 
-2.237212 -1.887993 -2.013821 -9.389629 20.250894 -2.108492 0.000000 -0.000000 0.000000 5.159027 -5.072422 -0.444235 4.449744 -0.491865 5.016977 0.000000 0.000000 0.000000 3.947900 -0.932875 5.517860 -2.582575 -12.621688 -1.765346 2.483723 -0.156236 3.911649 -4.854588 -4.021776 -2.371755 -85.959131 -7.512628 -25.619191 -1.790964 16.955568 0.009419 3.926683 -1.304970 4.731321 16.826073 -5.221090 6.147154 61.031172 1.090661 -13.817715 -177.512454 64.296971 -174.081825 0.000000 0.000000 -0.000000 5.298810 15.802830 -14.525352 -1.938315 -20.045487 0.016917 0.000000 0.000000 -0.000000 4.334415 -4.486535 -4.568342 6.014361 1.106211 6.062673 
-2.333793 -1.931523 -2.074208 -9.354414 20.163789 -2.130149 0.000000 -0.000000 0.000000 5.167527 -5.086927 -0.446663 4.445205 -0.497129 5.012406 0.000000 0.000000 0.000000 3.951469 -0.938287 5.501323 -2.544015 -12.678645 -1.767095 2.487103 -0.159892 3.892765 -4.840310 -4.084346 -2.359048 -85.942756 -7.696769 -25.634376 -1.795144 16.915850 0.003438 3.938302 -1.310741 4.716807 16.889058 -5.201349 6.189796 61.105004 0.936090 -13.462495 -177.386821 64.782136 -173.960842 0.000000 0.000000 -0.000000 5.315597 15.836346 -14.465353 -1.942709 -20.032918 0.058385 0.000000 0.000000 -0.000000 4.382318 -4.537168 -4.555214 5.970343 1.061423 6.120693 
-2.429544 -1.974700 -2.134941 -9.319265 20.059049 -2.147602 0.000000 -0.000000 0.000000 5.155420 -5.114973 -0.446175 4.430676 -0.501705 5.005758 0.000000 0.000000 0.000000 3.950766 -0.943632 5.484248 -2.517235 -12.718760 -1.780999 2.485777 -0.165436 3.870950 -4.810648 -4.170616 -2.335262 -85.937228 -7.874439 -25.645579 -1.799746 16.868369 -0.002898 3.940454 -1.315923 4.700742 16.977558 -5.065328 6.229162 61.188285 0.781568 -13.055229 -177.294312 65.031423 -173.876204 0.000000 0.000000 -0.000000 5.329897 15.864907 -14.397951 -1.946373 -20.023712 0.088342 0.000000 0.000000 -0.000000 4.426072 -4.594318 -4.543592 5.925211 1.013733 6.169182 
-2.524045 -2.017602 -2.196220 -9.283510 19.960463 -2.164939 0.000000 -0.000000 0.000000 5.124556 -5.160821 -0.439417 4.412264 -0.507947 4.997152 0.000000 0.000000 0.000000 3.947637 -0.947880 5.468650 -2.505458 -12.729913 -1.803015 2.483832 -0.168711 3.850367 -4.771427 -4.279879 -2.301884 -85.952233 -8.070865 -25.664342 -1.807324 16.824871 -0.010404 3.940261 -1.319654 4.681241 17.091444 -4.850867 6.261968 61.261070 0.672939 -12.637154 -177.248002 65.021568 -173.835776 0.000000 0.000000 -0.000000 5.341140 15.890814 -14.323347 -1.949837 -20.019926 0.101133 0.000000 0.000000 -0.000000 4.466128 -4.661242 -4.538685 5.875782 0.964311 6.225268 
-2.615931 -2.060189 -2.257919 -9.250537 19.881816 -2.187104 0.000000 -0.000000 0.000000 5.086791 -5.195244 -0.411755 4.391876 -0.512503 4.986655 0.000000 0.000000 0.000000 3.943592 -0.951662 5.451830 -2.501472 -12.718710 -1.835664 2.480405 -0.170161 3.836099 -4.715282 -4.410656 -2.262144 -85.959828 -8.254317 -25.673116 -1.816357 16.774762 -0.018917 3.937830 -1.323778 4.662466 17.224278 -4.577002 6.294666 61.337940 0.583449 -12.176751 -177.229699 64.812990 -173.819896 0.000000 0.000000 -0.000000 5.347660 15.912268 -14.243159 -1.952175 -20.022132 0.101989 0.000000 0.000000 -0.000000 4.499428 -4.731032 -4.544438 5.825997 0.912115 6.298367 
